<mxfile host="app.diagrams.net" modified="2022-06-06T20:50:23.735Z" agent="5.0 (Windows NT 10.0; Win64; x64) AppleWebKit/537.36 (KHTML, like Gecko) Chrome/102.0.5005.63 Safari/537.36" etag="imSdk3m_-X73HeIRYLUh" version="19.0.1" type="github">
  <diagram id="Nr3qBea76uzIdlmmIsZl" name="Page-1">
    <mxGraphModel dx="1021" dy="529" grid="1" gridSize="10" guides="1" tooltips="1" connect="1" arrows="1" fold="1" page="1" pageScale="1" pageWidth="827" pageHeight="1169" math="0" shadow="0">
      <root>
        <mxCell id="0" />
        <mxCell id="1" parent="0" />
        <mxCell id="dw2P2mk1RpKRBOWHhtZL-5" style="edgeStyle=orthogonalEdgeStyle;rounded=0;orthogonalLoop=1;jettySize=auto;html=1;exitX=1;exitY=0.5;exitDx=0;exitDy=0;" edge="1" parent="1" source="dw2P2mk1RpKRBOWHhtZL-2" target="dw2P2mk1RpKRBOWHhtZL-6">
          <mxGeometry relative="1" as="geometry">
            <mxPoint x="230" y="230" as="targetPoint" />
          </mxGeometry>
        </mxCell>
        <mxCell id="dw2P2mk1RpKRBOWHhtZL-2" value="Usuário" style="whiteSpace=wrap;html=1;aspect=fixed;" vertex="1" parent="1">
          <mxGeometry x="100" y="190" width="80" height="80" as="geometry" />
        </mxCell>
        <mxCell id="dw2P2mk1RpKRBOWHhtZL-8" style="edgeStyle=orthogonalEdgeStyle;rounded=0;orthogonalLoop=1;jettySize=auto;html=1;exitX=1;exitY=0.5;exitDx=0;exitDy=0;entryX=0;entryY=0.5;entryDx=0;entryDy=0;" edge="1" parent="1" source="dw2P2mk1RpKRBOWHhtZL-6" target="dw2P2mk1RpKRBOWHhtZL-9">
          <mxGeometry relative="1" as="geometry">
            <mxPoint x="430" y="230" as="targetPoint" />
          </mxGeometry>
        </mxCell>
        <mxCell id="dw2P2mk1RpKRBOWHhtZL-6" value="&lt;span style=&quot;line-height: 104%;&quot;&gt;&lt;font style=&quot;font-size: 12px;&quot;&gt;Cadastro do usuário&lt;/font&gt;&lt;/span&gt;" style="rhombus;whiteSpace=wrap;html=1;" vertex="1" parent="1">
          <mxGeometry x="240" y="190" width="140" height="80" as="geometry" />
        </mxCell>
        <mxCell id="dw2P2mk1RpKRBOWHhtZL-11" value="" style="edgeStyle=orthogonalEdgeStyle;rounded=0;orthogonalLoop=1;jettySize=auto;html=1;" edge="1" parent="1" source="dw2P2mk1RpKRBOWHhtZL-9" target="dw2P2mk1RpKRBOWHhtZL-10">
          <mxGeometry relative="1" as="geometry" />
        </mxCell>
        <mxCell id="dw2P2mk1RpKRBOWHhtZL-9" value="Login" style="rhombus;whiteSpace=wrap;html=1;" vertex="1" parent="1">
          <mxGeometry x="430" y="190" width="100" height="80" as="geometry" />
        </mxCell>
        <mxCell id="dw2P2mk1RpKRBOWHhtZL-10" value="&lt;span style=&quot;line-height: 104%;&quot;&gt;&lt;font style=&quot;font-size: 12px;&quot;&gt;Criação da classe do personagem&lt;/font&gt;&lt;/span&gt;" style="rhombus;whiteSpace=wrap;html=1;" vertex="1" parent="1">
          <mxGeometry x="560" y="190" width="230" height="80" as="geometry" />
        </mxCell>
        <mxCell id="dw2P2mk1RpKRBOWHhtZL-13" value="" style="edgeStyle=orthogonalEdgeStyle;rounded=0;orthogonalLoop=1;jettySize=auto;html=1;" edge="1" parent="1" target="dw2P2mk1RpKRBOWHhtZL-14">
          <mxGeometry relative="1" as="geometry">
            <mxPoint x="799.9964705882351" y="230.05882352941182" as="sourcePoint" />
          </mxGeometry>
        </mxCell>
        <mxCell id="dw2P2mk1RpKRBOWHhtZL-15" style="edgeStyle=orthogonalEdgeStyle;rounded=0;orthogonalLoop=1;jettySize=auto;html=1;entryX=1;entryY=0.5;entryDx=0;entryDy=0;" edge="1" parent="1" source="dw2P2mk1RpKRBOWHhtZL-14" target="dw2P2mk1RpKRBOWHhtZL-10">
          <mxGeometry relative="1" as="geometry" />
        </mxCell>
        <mxCell id="dw2P2mk1RpKRBOWHhtZL-16" style="edgeStyle=orthogonalEdgeStyle;rounded=0;orthogonalLoop=1;jettySize=auto;html=1;exitX=1;exitY=0.5;exitDx=0;exitDy=0;" edge="1" parent="1" source="dw2P2mk1RpKRBOWHhtZL-14" target="dw2P2mk1RpKRBOWHhtZL-17">
          <mxGeometry relative="1" as="geometry">
            <mxPoint x="1100" y="229.82352941176475" as="targetPoint" />
          </mxGeometry>
        </mxCell>
        <mxCell id="dw2P2mk1RpKRBOWHhtZL-14" value="&lt;span style=&quot;line-height: 104%;&quot;&gt;&lt;font style=&quot;font-size: 12px;&quot;&gt;Criação do personagem&lt;/font&gt;&lt;/span&gt;" style="rhombus;whiteSpace=wrap;html=1;" vertex="1" parent="1">
          <mxGeometry x="830.0699999999999" y="190" width="230" height="80" as="geometry" />
        </mxCell>
        <mxCell id="dw2P2mk1RpKRBOWHhtZL-17" value="&lt;span style=&quot;line-height: 104%;&quot;&gt;&lt;font style=&quot;font-size: 12px;&quot;&gt;Determinar as habilidades das classes&lt;/font&gt;&lt;/span&gt;" style="rhombus;whiteSpace=wrap;html=1;" vertex="1" parent="1">
          <mxGeometry x="1080" y="190" width="260" height="80" as="geometry" />
        </mxCell>
      </root>
    </mxGraphModel>
  </diagram>
</mxfile>
